<svg xmlns="http://www.w3.org/2000/svg" viewBox="0 0 446.28 137.83"><path d="M18.58,44.5a145,145,0,0,0-1.34,18.7c0,8.82,1.47,27.4,12.3,27.4,5.21,0,13.76-6.55,20.17-17.11l-1.6-.93a44.42,44.42,0,0,1-5,6C38.35,77.1,33.28,68,33.28,50.38c0-1.74,0-3.61.13-5.62,5.75,0,11.76-.93,20.31-6.28l3.47-2.27-.53-.8a14.33,14.33,0,0,1-5.75.94c-4.54,0-10.42-.81-16.7-.67l1.34-8.29a29.91,29.91,0,0,1,7-15l-.67-.8L28.07,19.78c-4.41,4.14-7.49,11.35-8.16,15.5L19.25,39,6.15,46.5l.54.8A53.6,53.6,0,0,1,18.58,44.5Z" style="fill:#fff"/><path d="M53.05,76.17c0,6,2,13.89,8.69,13.89,7.08,0,18.3-9.22,24.05-16.84.53,10.7,3.07,16.71,7.35,16.71,5.21,0,13.76-6.55,20.31-17.24l-1.61-.94a55.16,55.16,0,0,1-4.94,6c-3.74-1.6-5.61-10.83-5.61-19.91,0-5.75.53-11.49,1.87-15a27.19,27.19,0,0,0,5.61-2.8l-.4-.94a16.26,16.26,0,0,1-2.67.14c-7.89,0-18.17-2.54-20-7.09L71,40.75l.4.67-11.9,9.49C55.46,59.33,53.05,68.68,53.05,76.17ZM73.5,43.43c2.8,1.73,7.08,2.67,11.89,2.67.93,0,1.87-.13,2.8-.13a179.7,179.7,0,0,0-3.74,20.17A41.08,41.08,0,0,1,74.7,80.31c-3.74-1.87-5.35-6.68-5.35-13.23S70.82,52.38,73.5,43.43Z" style="fill:#fff"/><path d="M113.18,86.85l.53.81a17.82,17.82,0,0,1,5.75-.94c8.68,0,15.1,6,21.78,6a11.83,11.83,0,0,0,2.94-.4s10.69-7.21,15-10L169,76.7a21.28,21.28,0,0,0,4.55-13.36c0-9.49-5.62-19.11-9.49-28.46l-.54-.81-13.49,7.62a75.72,75.72,0,0,0-14,16c-.54-5.61-.94-11.62-.94-17.5,0-2.14,0-4.41.14-6.55,13.49-7.21,31.4-14.43,31.4-24.58,0-6.55-7.22-9-12.16-9a17.91,17.91,0,0,0-2.67.14l-14,8.15.13.27-12.43,7.08c-4.67,9.08-6.14,20.84-6.14,32.73a241.28,241.28,0,0,0,2.8,33.28Zm35.94-40.62c4.28,9.22,8.82,17.77,8.82,26.06a20.66,20.66,0,0,1-2.4,9.75c-5.35,0-10.56-3.47-17-4.54L137.1,66.68A45.57,45.57,0,0,1,149.12,46.23Zm-9-37.41c4.81,0,10.69,3.07,10.69,8.15s-7.22,8.69-15.63,13.36C135.76,22.45,137.36,14.83,140.17,8.82Z" style="fill:#fff"/><path d="M191.75,90.6c5.21,0,13.76-6.55,20.17-17.11l-1.6-.93c-1.2,1.47-2.94,4.14-4.94,5.88-4.95-2.27-9.22-19.91-9.22-40.76V34.07c10.69-6.41,27.66-17.1,27.66-25.65,0-7.35-9.89-8.42-15-8.42l-14,8.42L184.8,14a198,198,0,0,0-4,38.75C180.79,73.63,184.4,90.6,191.75,90.6ZM199,8.82c4.41,1.2,9.36,4.68,9.36,9.49,0,4.54-5.22,7.61-12,12.29A120.28,120.28,0,0,1,199,8.82Z" style="fill:#fff"/><path d="M214.73,62.27c0,13.76,8.68,28.86,18.57,28.86,6.68,0,15.23-5.61,21.78-11.09l-.67-.94a11.18,11.18,0,0,1-5.88,1.74c-6.94,0-14.83-6.28-17.1-18.17,4.54-2,9.09-4.28,13-6.42l13.36-7.48-.4-.93c-7.21-1.07-11.22-5.48-11.22-10.16a9.9,9.9,0,0,1,3.07-6.95l-.53-.93-13.9,8a7.94,7.94,0,0,0-1.6,2.13l-.27-.66L217.4,48.1A39,39,0,0,0,214.73,62.27ZM231.83,46c.4,3.87,3.21,7.61,7.62,9.62-2.67,1.33-5.48,2.8-8.42,4-.13-1.34-.27-2.68-.27-4.15A48.91,48.91,0,0,1,231.83,46Z" style="fill:#fff"/><path d="M258.82,87.66a17.82,17.82,0,0,1,5.75-.94c8.68,0,15.1,6,21.78,6a11.83,11.83,0,0,0,2.94-.4s10.69-7.21,15-10l9.89-5.61a21.26,21.26,0,0,0,4.54-13.36c0-9.49-5.61-19.11-9.48-28.46l-.54-.81-13.49,7.62a75.44,75.44,0,0,0-14,16c-.54-5.61-.94-11.62-.94-17.5,0-2.14,0-4.41.13-6.55,13.5-7.21,31.4-14.43,31.4-24.58,0-6.55-7.21-9-12.15-9a18,18,0,0,0-2.68.14l-14,8.15.14.27-12.43,7.08c-4.68,9.08-6.15,20.84-6.15,32.73a239.63,239.63,0,0,0,2.81,33.28l-8.95,5.07Zm35.41-41.43c4.28,9.22,8.82,17.77,8.82,26.06A20.56,20.56,0,0,1,300.64,82c-5.34,0-10.55-3.47-17-4.54L282.2,66.68A45.59,45.59,0,0,1,294.23,46.23Zm-9-37.41C290.09,8.82,296,11.89,296,17s-7.22,8.69-15.64,13.36C280.87,22.45,282.47,14.83,285.28,8.82Z" style="fill:#fff"/><path d="M341.67,89.93a20.28,20.28,0,0,0,5.47-.8A138.05,138.05,0,0,0,370.39,76c3.61-3.87,5.35-9.89,5.35-16,0-13.77-9.35-25-22.32-26.19l-11.49,6.54.4.81.94.53-15,11.89a32.75,32.75,0,0,0-3.07,14.17C325.23,79.24,331.11,89.93,341.67,89.93Zm2.8-47.44c10,6.15,15.64,15.5,15.77,27.93A26.49,26.49,0,0,1,358,81.51c-10.56,0-16.3-10.29-16.3-23.12A48.75,48.75,0,0,1,344.47,42.49Z" style="fill:#fff"/><path d="M446.11,128.47c-5.4-11.07-16.62-18-28.29-20.85a76.76,76.76,0,0,0-11.37-1.85c.81-4.12,1.66-9,2.43-14.1a25,25,0,0,0,4.27.4,10.26,10.26,0,0,0,3.61-.54s10.69-7.21,15-10l9.88-5.61a17.24,17.24,0,0,0,3.74-10.56c0-9.89-8.55-19.64-12.69-29.8l-.53-.8-13.5,7.62c-4,4.94-7.88,9.75-10.15,16-.54-15.1-7.75-24-12-24-6.28,0-18.57,8.82-23,12.43l1.07,1.33a59.65,59.65,0,0,1,7.34-4.81C391.51,47.7,395.65,60,395.51,77.9a25.89,25.89,0,0,0-5.74.94l-15.5,8.82.53.8a25.39,25.39,0,0,1,7.22-.94,61.05,61.05,0,0,1,12.83,1.61c-.53,5.05-1.32,10.5-2.34,16.27-6.79.18-13.59.75-20.22,1.24-31.83,2.33-63.41,7.15-94.91,12.15S214.44,129,182.71,132.06c-31.12,3-62.56,4-93.7.79A283.12,283.12,0,0,1,44,124.78c-12.4-3.38-24.89-8.21-34.75-16.69a55.38,55.38,0,0,1-6.71-6.9c-1.23-1.49-3.34.64-2.12,2.13,8,9.73,19.05,16.12,30.72,20.5,13.33,5,27.55,7.78,41.58,9.93,30.63,4.69,61.76,4.93,92.63,2.77,31.39-2.2,62.54-6.85,93.6-11.77,31.54-5,63.06-10.27,94.84-13.49,12.63-1.28,25.45-2.55,38.19-2.76q-1.43,7.56-3.36,15.77l.66.8a84.12,84.12,0,0,1,14.3-8.42c.52-.52,1.36-3.51,2.29-7.86,11.93,1,23.95,4.5,32.37,13.43a31.11,31.11,0,0,1,5.33,7.77C444.37,131.72,447,130.2,446.11,128.47Zm-35-64.6c1.33-5.48,3.34-12,6.68-16.83,4.81,10,11.76,18.43,11.76,27.12A15.46,15.46,0,0,1,428,81.24c-4.67.27-11-1.07-17.5-2.14a107.15,107.15,0,0,0,.8-12A24.44,24.44,0,0,0,411.15,63.87Z" style="fill:#fff"/></svg>