<svg xmlns="http://www.w3.org/2000/svg" viewBox="0 0 432.63 110.06"><path d="M52.38,42.13l-8,11.66-10.36.9v31l8.86-.78L34.05,99.73,19.8,88.62V55.94l-10.07.88L34.05,30.38V43.73Z" style="fill:#fff"/><path d="M100.5,79.87,91.63,94.69,77.28,83.59,64.83,97,49.28,86.84v-14l28-13.71V50.91L53.17,53,61,41.37l30.59-2.68v42ZM77.28,81.8V68.94L62.53,70.23V83.09Z" style="fill:#fff"/><path d="M148.91,75.53,130.38,91.3,105.57,81.12V22.43L119.92,14V45.38L132.37,32l16.54,10.81Zm-14.24,1.25V45.89l-14.75,1.29V78.07Z" style="fill:#fff"/><path d="M179.94,72.82l-8.87,14.92L156.83,76.63V17.94l14.24-8.42V73.59Z" style="fill:#fff"/><path d="M224.76,49.56,198.85,62.19v9l21.43-1.87-10,15-25.8-6.91V41.53l18.63-15.78,21.62,10Zm-13.25,2.56v-13l-12.66,1.11v13Z" style="fill:#fff"/><path d="M274.74,64.52,256.21,80.29,231.4,70.11V11.42L245.75,3V34.38L258.2,21l16.54,10.81Zm-14.25,1.25V34.88l-14.74,1.29V67.06Z" style="fill:#fff"/><path d="M325.17,60.11,306.64,75.88,281.83,65.7V33l18.63-15.78,24.71,10.2Zm-14.25,1.25V30.47l-14.75,1.29V62.65Z" style="fill:#fff"/><path d="M376.53,57.41,364.07,70.86,347.53,60V84.66l-14.35,8.43V21.55l14.35-8.43V25.47L360,12l16.54,10.9Zm-14.25-.55V26l-14.75,1.3V58.15Z" style="fill:#fff"/><path d="M353.62,103.84l-8.59-3.2,8.59-4.75Z" style="fill:#fff"/><path d="M372.46,82.06l-4.63,4-4.71-3.11V97.39l7.68-.67-4,6-9.42-2.82V85.63l9.5-6.45Z" style="fill:#fff"/><path d="M390.88,95l-7.36,6.26-9.85-4v-13l7.4-6.27,9.81,4Zm-5.66.49V83.2l-5.85.51V96Z" style="fill:#fff"/><path d="M426.66,91.84l-3.52,5.92-5.66-4.41v-13l-5.9.52V93.16l3.52-.31-3.52,5.92-5.66-4.41v-13L400,81.9V94.17l3.52-.31L400,99.78l-5.66-4.41V79.63L400,76.28v4.91l5-5.34,6.57,4.33,4.95-5.34,6.61,4.33v13Z" style="fill:#fff"/></svg>